<svg xmlns="http://www.w3.org/2000/svg" width="4" height="8" viewBox="0 0 4 8" fill="none">
  <g opacity="0.2" clip-path="url(#clip0_47085_860)">
    <path d="M3.79999 3.6002L0.799994 0.600195C0.599994 0.400195 0.299994 0.400195 0.0999939 0.600195C-6.10203e-06 0.800195 -6.10203e-06 1.2002 0.0999939 1.4002L2.69999 4.0002L0.0999939 6.6002C-6.10203e-06 6.8002 -6.10203e-06 7.1002 0.0999939 7.3002C0.199994 7.4002 0.399994 7.5002 0.499994 7.5002C0.599994 7.5002 0.799994 7.4002 0.899994 7.4002L3.89999 4.4002C3.89999 4.3002 3.99999 4.1002 3.99999 4.0002C3.99999 3.9002 3.89999 3.7002 3.79999 3.6002Z" fill="black"/>
  </g>
  <defs>
    <clipPath id="clip0_47085_860">
      <rect width="4" height="7" fill="white" transform="translate(0 0.5)"/>
    </clipPath>
  </defs>
</svg>
