<svg width="192" height="130" viewBox="0 0 192 130" fill="none" xmlns="http://www.w3.org/2000/svg"><path d="M52.204 129.8c-8.64 0-16.14-1.2-22.5-3.6-6.36-2.52-11.64-5.94-15.84-10.26-4.08-4.32-7.2-9.36-9.36-15.12-2.16-5.76-3.42-11.94-3.78-18.54-.12-3.24-.24-6.9-.36-10.98V58.7c.12-4.32.24-8.16.36-11.52.36-6.6 1.62-12.72 3.78-18.36 2.28-5.76 5.52-10.74 9.72-14.94 4.32-4.32 9.6-7.68 15.84-10.08 6.36-2.4 13.74-3.6 22.14-3.6 8.52 0 15.9 1.2 22.14 3.6 6.24 2.4 11.46 5.76 15.66 10.08 4.32 4.2 7.62 9.18 9.9 14.94 2.28 5.64 3.54 11.76 3.78 18.36.24 3.36.36 7.2.36 11.52.12 4.2.12 8.4 0 12.6 0 4.08-.12 7.74-.36 10.98-.24 6.6-1.5 12.78-3.78 18.54-2.16 5.76-5.34 10.8-9.54 15.12-4.08 4.32-9.3 7.74-15.66 10.26-6.24 2.4-13.74 3.6-22.5 3.6Zm0-26.1c6.24 0 10.74-1.98 13.5-5.94 2.88-4.08 4.38-9.54 4.5-16.38.24-3.48.36-7.14.36-10.98.12-3.84.12-7.68 0-11.52 0-3.84-.12-7.38-.36-10.62-.12-6.6-1.62-11.94-4.5-16.02-2.76-4.08-7.26-6.18-13.5-6.3-6.24.12-10.74 2.22-13.5 6.3s-4.26 9.42-4.5 16.02c-.12 3.24-.24 6.78-.36 10.62V70.4c.12 3.84.24 7.5.36 10.98.24 6.84 1.8 12.3 4.68 16.38 2.88 3.96 7.32 5.94 13.32 5.94ZM163.387 128c-1.2 0-2.28-.42-3.24-1.26-.84-.84-1.26-1.92-1.26-3.24V37.82l-24.66 18.9c-1.08.84-2.22 1.14-3.42.9-1.08-.24-2.04-.9-2.88-1.98l-10.62-13.86c-.72-1.08-1.02-2.22-.9-3.42.24-1.32.96-2.34 2.16-3.06l41.4-32.04c.72-.48 1.38-.78 1.98-.9.72-.24 1.5-.36 2.34-.36h22.5c1.2 0 2.22.42 3.06 1.26.96.84 1.44 1.92 1.44 3.24v117c0 1.32-.48 2.4-1.44 3.24-.84.84-1.86 1.26-3.06 1.26h-23.4Z" fill="#fff"/></svg>