<svg width="230" height="130" viewBox="0 0 230 130" fill="none" xmlns="http://www.w3.org/2000/svg"><path d="M105.914 48.98c.24 3.36.36 8.76.36 16.2 0 7.32-.12 12.6-.36 15.84-.84 14.28-5.58 25.98-14.22 35.1-8.52 9.12-21.3 13.68-38.34 13.68-17.04 0-29.88-4.56-38.52-13.68C6.314 107 1.634 95.3.794 81.02c-.24-6.48-.36-11.76-.36-15.84s.12-9.48.36-16.2c.84-14.28 5.52-25.98 14.04-35.1C23.474 4.76 36.314.2 53.354.2c17.04 0 29.82 4.56 38.34 13.68 8.64 9.12 13.38 20.82 14.22 35.1Zm-33.3.9c-.36-6.6-1.98-11.7-4.86-15.3-2.88-3.72-7.68-5.58-14.4-5.58-6.72 0-11.52 1.86-14.4 5.58-2.88 3.6-4.5 8.7-4.86 15.3-.24 6.48-.36 11.46-.36 14.94 0 3.24.12 8.34.36 15.3.24 6.6 1.8 11.76 4.68 15.48 3 3.6 7.86 5.4 14.58 5.4s11.52-1.8 14.4-5.4c3-3.72 4.62-8.88 4.86-15.48.24-3.48.36-8.58.36-15.3 0-6.72-.12-11.7-.36-14.94ZM217.959 2c1.32 0 2.46.48 3.42 1.44s1.44 2.1 1.44 3.42v19.08c0 1.8-1.2 3.9-3.6 6.3l-21.78 21.96c9.84 2.4 17.58 6.54 23.22 12.42 5.64 5.88 8.46 13.32 8.46 22.32 0 13.32-4.68 23.46-14.04 30.42-9.24 6.96-22.32 10.44-39.24 10.44-10.92 0-20.46-1.68-28.62-5.04-8.16-3.36-14.4-7.74-18.72-13.14-4.32-5.52-6.6-11.34-6.84-17.46 0-1.08.36-1.98 1.08-2.7.84-.84 1.8-1.26 2.88-1.26h22.68c1.92 0 3.48.36 4.68 1.08 1.2.6 2.58 1.62 4.14 3.06 2.4 2.16 4.86 3.84 7.38 5.04 2.64 1.08 6.42 1.62 11.34 1.62 6 0 10.8-1.02 14.4-3.06 3.72-2.04 5.58-5.04 5.58-9s-1.86-6.96-5.58-9c-3.6-2.04-8.4-3.06-14.4-3.06h-14.94c-1.32 0-2.46-.48-3.42-1.44s-1.44-2.1-1.44-3.42V56.54c0-1.2.3-2.28.9-3.24.72-.96 1.68-2.04 2.88-3.24l19.08-19.26h-46.98c-1.32 0-2.46-.48-3.42-1.44s-1.44-2.1-1.44-3.42V6.86c0-1.32.48-2.46 1.44-3.42s2.1-1.44 3.42-1.44h86.04Z" fill="#fff"/></svg>