<svg width="7" height="11" viewBox="0 0 7 11" fill="none" xmlns="http://www.w3.org/2000/svg"><path d="M.4 10.5a.353.353 0 0 1-.238-.084.353.353 0 0 1-.084-.238V9.73c0-.084.023-.177.07-.28.046-.103.14-.215.28-.336l2.968-2.968c.476-.401.849-.742 1.12-1.022.28-.29.476-.565.588-.826.12-.261.182-.532.182-.812 0-.532-.15-.952-.448-1.26-.3-.317-.742-.476-1.33-.476-.374 0-.696.08-.966.238-.271.15-.486.36-.644.63-.15.261-.248.56-.294.896-.02.121-.07.205-.154.252a.4.4 0 0 1-.21.07H.512a.317.317 0 0 1-.21-.07.269.269 0 0 1-.084-.196c.009-.355.084-.71.224-1.064.14-.364.345-.69.616-.98.28-.29.62-.523 1.022-.7.41-.187.886-.28 1.428-.28.737 0 1.339.135 1.806.406.476.261.826.611 1.05 1.05.224.439.336.92.336 1.442 0 .41-.07.789-.21 1.134-.14.336-.346.667-.616.994a8.073 8.073 0 0 1-.98.98l-2.688 2.73h4.368c.102 0 .182.028.238.084a.296.296 0 0 1 .098.238v.574a.324.324 0 0 1-.098.238c-.056.056-.136.084-.238.084H.4Z" fill="#000"/></svg>