<svg width="40" height="40" viewBox="0 0 40 40" fill="none" xmlns="http://www.w3.org/2000/svg"><circle cx="20" cy="20" r="20" fill="#fff" fill-opacity=".3"/><g clip-path="url(#a)"><path d="m25.443 14.074-11.82 4.558c-.807.324-.802.774-.148.974l3.035.947 7.021-4.43c.332-.202.635-.093.386.128l-5.689 5.134-.209 3.129c.307 0 .442-.141.614-.307l1.474-1.433 3.066 2.264c.565.312.971.152 1.112-.523l2.013-9.485c.206-.826-.316-1.2-.855-.956Z" fill="#444"/></g><defs><clipPath id="a"><path fill="#fff" transform="translate(13 14)" d="M0 0h14v12H0z"/></clipPath></defs></svg>